# xmcd
#
# Track frame offsets:
# 150
# 17915
# 39841
# 56579
# 74951
# 101387
# 118102
# 139897
# 157057
# 170645
# 186874
#
# Disc length: 2870 seconds
#
#
# Revision: 0
# Processed by: cddbd v1.5.1PL2 Copyright (c) Steve Scherf et al.
# Submitted via: FreeRIP 2.944 
#
DISCID=a10b340b
DTITLE=Carvin Jones - Live In Spain, Vol II
DYEAR=2004
DGENRE=Blues
TTITLE0=I'm Ready
TTITLE1=I Just Wanna Make Love To You
TTITLE2=Let The Good Times Roll
TTITLE3=Messing With The Kid
TTITLE4=If Trouble Was Money
TTITLE5=Reelin' And Rockin'
TTITLE6=Foxey
TTITLE7=Pride And Joy
TTITLE8=Don't Lie To Me
TTITLE9=Before You Accuse Me
TTITLE10=All Along The Watchtower
EXTD=
EXTT0=
EXTT1=
EXTT2=
EXTT3=
EXTT4=
EXTT5=
EXTT6=
EXTT7=
EXTT8=
EXTT9=
EXTT10=
PLAYORDER=
